<svg width="107" height="19" viewBox="0 0 107 19" fill="none" xmlns="http://www.w3.org/2000/svg">
<path d="M9.5 19C14.7467 19 19 14.7467 19 9.5C19 4.25329 14.7467 1.10595e-09 9.5 1.10595e-09C4.25329 1.10595e-09 0 4.25329 0 9.5C0 14.7467 4.25329 19 9.5 19Z" fill="#D96812"/>
<path d="M31.5 19C36.7467 19 41 14.7467 41 9.5C41 4.25329 36.7467 1.10595e-09 31.5 1.10595e-09C26.2533 1.10595e-09 22 4.25329 22 9.5C22 14.7467 26.2533 19 31.5 19Z" fill="#F2A921"/>
<path d="M53.5 19C58.7467 19 63 14.7467 63 9.5C63 4.25329 58.7467 1.10595e-09 53.5 1.10595e-09C48.2533 1.10595e-09 44 4.25329 44 9.5C44 14.7467 48.2533 19 53.5 19Z" fill="#014873"/>
<path d="M75.5 19C80.7467 19 85 14.7467 85 9.5C85 4.25329 80.7467 1.10595e-09 75.5 1.10595e-09C70.2533 1.10595e-09 66 4.25329 66 9.5C66 14.7467 70.2533 19 75.5 19Z" fill="#A0BED9"/>
<path d="M97.5 19C102.747 19 107 14.7467 107 9.5C107 4.25329 102.747 1.10595e-09 97.5 1.10595e-09C92.2533 1.10595e-09 88 4.25329 88 9.5C88 14.7467 92.2533 19 97.5 19Z" fill="#3A8C6E"/>
</svg>
